# xmcd
#
# Track frame offsets: 
#        150
#        18167
#        31200
#        43282
#        63235
#        81242
#        94402
#        119372
#        132527
#        152140
#        169027
#        183647
#
# Disc length: 2731 seconds
#
# Revision: 3
# Processed by: cddbd v1.4PL0 Copyright (c) Steve Scherf et al.
# Submitted via: ExactAudioCopy v0.95a1
#
DISCID=a20aa90c
DTITLE=Lucky Strikes - Twelve Past Midnight
DYEAR=1900
DGENRE=
TTITLE0=You Made This House A Home
TTITLE1=Straight To You
TTITLE2=Someone Else's Dream
TTITLE3=Wait For The Moon
TTITLE4=Time Flies
TTITLE5=One More Thing
TTITLE6=Is This Happening?
TTITLE7=If It Were All Up To Me
TTITLE8=Not Pretend
TTITLE9=All I Do
TTITLE10=Baby That's How It's Done
TTITLE11=From Red To Blue
EXTD=
EXTT0=
EXTT1=
EXTT2=
EXTT3=
EXTT4=
EXTT5=
EXTT6=
EXTT7=
EXTT8=
EXTT9=
EXTT10=
EXTT11=
PLAYORDER=
